<svg xmlns="http://www.w3.org/2000/svg" xmlns:xlink="http://www.w3.org/1999/xlink" style="margin:auto;background:#ffffff;display:block;z-index:1;position:relative" width="1126" height="770" preserveAspectRatio="xMidYMid" viewBox="0 0 1126 770">
<g transform="translate(563,385) scale(1,1) translate(-563,-385)"><defs>
<linearGradient id="lg-0.6800032721907296" x1="0" x2="0" y1="0" y2="1">
  <stop stop-color="#ffffff" offset="0"></stop>
  <stop stop-color="#ffffff" offset="1"></stop>
</linearGradient>
</defs>
<rect x="0" y="0" width="1126" height="770" fill="url(#lg-0.6800032721907296)"></rect><g transform="translate(848.4354626903423 272.1625313844176) rotate(55.19826256975528) scale(0.6963860755199272)">
<path fill="#fff6a7" d="M6.38-8.33C5.84-10.74,5-13.08,3.83-15.26c-0.85-1.58-1.98-4.16-4.16-3.86c-1.93,0.26-3.02,2.91-3.79,4.44 c-0.51,1-0.95,2.03-1.32,3.09c-0.37,1.06-0.47,2.86-1.16,3.72c-0.67,0.83-2.16,0.35-3.08,0.33c-1.36-0.03-2.71,0.04-4.06,0.21 c-1.72,0.22-4.81,0.42-5.85,2.03c-1.25,1.94,0.7,3.8,1.93,5.13c1.68,1.82,3.6,3.27,5.67,4.62c1.14,0.74,1.08,1.25,0.59,2.47 c-0.51,1.28-0.93,2.59-1.25,3.92c-0.44,1.86-1.34,5.14-0.4,6.93c1.16,2.23,3.65,1.11,5.37,0.35c2.37-1.05,4.49-2.47,6.49-4.1 c1.2-0.97,1.67-0.56,2.78,0.35c1.06,0.86,2.17,1.65,3.35,2.35c1.59,0.95,4.49,2.84,6.43,2.36c2.4-0.58,2-3.33,1.8-5.2 c-0.29-2.64-1.16-4.97-1.98-7.47c-0.5-1.54,0.7-1.87,1.83-2.64c1.09-0.73,2.12-1.54,3.09-2.42c1.41-1.28,4.24-3.58,3.84-5.73 c-0.45-2.42-4.05-2.66-6-2.93c-1.34-0.19-2.68-0.26-4.03-0.24C8.93-7.54,6.7-6.89,6.38-8.33z"></path>
</g><g transform="translate(313.87178138167565 484.7690294495436) rotate(73.92755229183656) scale(0.5404603900862737)">
<path fill="#fff6a7" d="M6.38-8.33C5.84-10.74,5-13.08,3.83-15.26c-0.85-1.58-1.98-4.16-4.16-3.86c-1.93,0.26-3.02,2.91-3.79,4.44 c-0.51,1-0.95,2.03-1.32,3.09c-0.37,1.06-0.47,2.86-1.16,3.72c-0.67,0.83-2.16,0.35-3.08,0.33c-1.36-0.03-2.71,0.04-4.06,0.21 c-1.72,0.22-4.81,0.42-5.85,2.03c-1.25,1.94,0.7,3.8,1.93,5.13c1.68,1.82,3.6,3.27,5.67,4.62c1.14,0.74,1.08,1.25,0.59,2.47 c-0.51,1.28-0.93,2.59-1.25,3.92c-0.44,1.86-1.34,5.14-0.4,6.93c1.16,2.23,3.65,1.11,5.37,0.35c2.37-1.05,4.49-2.47,6.49-4.1 c1.2-0.97,1.67-0.56,2.78,0.35c1.06,0.86,2.17,1.65,3.35,2.35c1.59,0.95,4.49,2.84,6.43,2.36c2.4-0.58,2-3.33,1.8-5.2 c-0.29-2.64-1.16-4.97-1.98-7.47c-0.5-1.54,0.7-1.87,1.83-2.64c1.09-0.73,2.12-1.54,3.09-2.42c1.41-1.28,4.24-3.58,3.84-5.73 c-0.45-2.42-4.05-2.66-6-2.93c-1.34-0.19-2.68-0.26-4.03-0.24C8.93-7.54,6.7-6.89,6.38-8.33z"></path>
</g><g transform="translate(922.4133545620133 117.84370313329434) rotate(352.87862986521736) scale(0.5784478029632171)">
<path fill="#fff6a7" d="M6.38-8.33C5.84-10.74,5-13.08,3.83-15.26c-0.85-1.58-1.98-4.16-4.16-3.86c-1.93,0.26-3.02,2.91-3.79,4.44 c-0.51,1-0.95,2.03-1.32,3.09c-0.37,1.06-0.47,2.86-1.16,3.72c-0.67,0.83-2.16,0.35-3.08,0.33c-1.36-0.03-2.71,0.04-4.06,0.21 c-1.72,0.22-4.81,0.42-5.85,2.03c-1.25,1.94,0.7,3.8,1.93,5.13c1.68,1.82,3.6,3.27,5.67,4.62c1.14,0.74,1.08,1.25,0.59,2.47 c-0.51,1.28-0.93,2.59-1.25,3.92c-0.44,1.86-1.34,5.14-0.4,6.93c1.16,2.23,3.65,1.11,5.37,0.35c2.37-1.05,4.49-2.47,6.49-4.1 c1.2-0.97,1.67-0.56,2.78,0.35c1.06,0.86,2.17,1.65,3.35,2.35c1.59,0.95,4.49,2.84,6.43,2.36c2.4-0.58,2-3.33,1.8-5.2 c-0.29-2.64-1.16-4.97-1.98-7.47c-0.5-1.54,0.7-1.87,1.83-2.64c1.09-0.73,2.12-1.54,3.09-2.42c1.41-1.28,4.24-3.58,3.84-5.73 c-0.45-2.42-4.05-2.66-6-2.93c-1.34-0.19-2.68-0.26-4.03-0.24C8.93-7.54,6.7-6.89,6.38-8.33z"></path>
</g><g transform="translate(910.7495986238299 240.41663831745583) rotate(79.30406802676961) scale(0.3635832832336262)">
<g>
<path fill="#f6dfa3" d="M6.38-8.33C5.84-10.74,5-13.08,3.83-15.26c-0.85-1.58-1.98-4.16-4.16-3.86c-1.93,0.26-3.02,2.91-3.79,4.44 c-0.51,1-0.95,2.03-1.32,3.09c-0.37,1.06-0.47,2.86-1.16,3.72c-0.67,0.83-2.16,0.35-3.08,0.33c-1.36-0.03-2.71,0.04-4.06,0.21 c-1.72,0.22-4.81,0.42-5.85,2.03c-1.25,1.94,0.7,3.8,1.93,5.13c1.68,1.82,3.6,3.27,5.67,4.62c1.14,0.74,1.08,1.25,0.59,2.47 c-0.51,1.28-0.93,2.59-1.25,3.92c-0.44,1.86-1.34,5.14-0.4,6.93c1.16,2.23,3.65,1.11,5.37,0.35c2.37-1.05,4.49-2.47,6.49-4.1 c1.2-0.97,1.67-0.56,2.78,0.35c1.06,0.86,2.17,1.65,3.35,2.35c1.59,0.95,4.49,2.84,6.43,2.36c2.4-0.58,2-3.33,1.8-5.2 c-0.29-2.64-1.16-4.97-1.98-7.47c-0.5-1.54,0.7-1.87,1.83-2.64c1.09-0.73,2.12-1.54,3.09-2.42c1.41-1.28,4.24-3.58,3.84-5.73 c-0.45-2.42-4.05-2.66-6-2.93c-1.34-0.19-2.68-0.26-4.03-0.24C8.93-7.54,6.7-6.89,6.38-8.33z"></path>
<animateTransform attributeName="transform" type="rotate" dur="0.7142857142857142s" repeatCount="indefinite" keyTimes="0;0.5;1" calcMode="spline" keySplines="0.4 0 0.6 1;0.4 0 0.6 1" begin="-0.06111535523300228s" values="-10;10;-10"></animateTransform>
</g>
</g><g transform="translate(337.30395324540353 69.40155069799543) rotate(172.28489956262882) scale(0.255974077739619)">
<g>
<path fill="#fff6a7" d="M6.38-8.33C5.84-10.74,5-13.08,3.83-15.26c-0.85-1.58-1.98-4.16-4.16-3.86c-1.93,0.26-3.02,2.91-3.79,4.44 c-0.51,1-0.95,2.03-1.32,3.09c-0.37,1.06-0.47,2.86-1.16,3.72c-0.67,0.83-2.16,0.35-3.08,0.33c-1.36-0.03-2.71,0.04-4.06,0.21 c-1.72,0.22-4.81,0.42-5.85,2.03c-1.25,1.94,0.7,3.8,1.93,5.13c1.68,1.82,3.6,3.27,5.67,4.62c1.14,0.74,1.08,1.25,0.59,2.47 c-0.51,1.28-0.93,2.59-1.25,3.92c-0.44,1.86-1.34,5.14-0.4,6.93c1.16,2.23,3.65,1.11,5.37,0.35c2.37-1.05,4.49-2.47,6.49-4.1 c1.2-0.97,1.67-0.56,2.78,0.35c1.06,0.86,2.17,1.65,3.35,2.35c1.59,0.95,4.49,2.84,6.43,2.36c2.4-0.58,2-3.33,1.8-5.2 c-0.29-2.64-1.16-4.97-1.98-7.47c-0.5-1.54,0.7-1.87,1.83-2.64c1.09-0.73,2.12-1.54,3.09-2.42c1.41-1.28,4.24-3.58,3.84-5.73 c-0.45-2.42-4.05-2.66-6-2.93c-1.34-0.19-2.68-0.26-4.03-0.24C8.93-7.54,6.7-6.89,6.38-8.33z"></path>
<animateTransform attributeName="transform" type="rotate" dur="0.7142857142857142s" repeatCount="indefinite" keyTimes="0;0.5;1" calcMode="spline" keySplines="0.4 0 0.6 1;0.4 0 0.6 1" begin="-0.09167303284950341s" values="-10;10;-10"></animateTransform>
</g>
</g><g transform="translate(283.3021087175571 63.921575471573945) rotate(43.475144688970886) scale(0.35443170650185674)">
<g>
<path fill="#fff6a7" d="M6.38-8.33C5.84-10.74,5-13.08,3.83-15.26c-0.85-1.58-1.98-4.16-4.16-3.86c-1.93,0.26-3.02,2.91-3.79,4.44 c-0.51,1-0.95,2.03-1.32,3.09c-0.37,1.06-0.47,2.86-1.16,3.72c-0.67,0.83-2.16,0.35-3.08,0.33c-1.36-0.03-2.71,0.04-4.06,0.21 c-1.72,0.22-4.81,0.42-5.85,2.03c-1.25,1.94,0.7,3.8,1.93,5.13c1.68,1.82,3.6,3.27,5.67,4.62c1.14,0.74,1.08,1.25,0.59,2.47 c-0.51,1.28-0.93,2.59-1.25,3.92c-0.44,1.86-1.34,5.14-0.4,6.93c1.16,2.23,3.65,1.11,5.37,0.35c2.37-1.05,4.49-2.47,6.49-4.1 c1.2-0.97,1.67-0.56,2.78,0.35c1.06,0.86,2.17,1.65,3.35,2.35c1.59,0.95,4.49,2.84,6.43,2.36c2.4-0.58,2-3.33,1.8-5.2 c-0.29-2.64-1.16-4.97-1.98-7.47c-0.5-1.54,0.7-1.87,1.83-2.64c1.09-0.73,2.12-1.54,3.09-2.42c1.41-1.28,4.24-3.58,3.84-5.73 c-0.45-2.42-4.05-2.66-6-2.93c-1.34-0.19-2.68-0.26-4.03-0.24C8.93-7.54,6.7-6.89,6.38-8.33z"></path>
<animateTransform attributeName="transform" type="rotate" dur="0.7142857142857142s" repeatCount="indefinite" keyTimes="0;0.5;1" calcMode="spline" keySplines="0.4 0 0.6 1;0.4 0 0.6 1" begin="-0.12223071046600456s" values="-10;10;-10"></animateTransform>
</g>
</g><g transform="translate(414.82416818692013 261.4814742865008) rotate(167.740309223275) scale(0.25673039515156354)">
<g>
<path fill="#f6dfa3" d="M6.38-8.33C5.84-10.74,5-13.08,3.83-15.26c-0.85-1.58-1.98-4.16-4.16-3.86c-1.93,0.26-3.02,2.91-3.79,4.44 c-0.51,1-0.95,2.03-1.32,3.09c-0.37,1.06-0.47,2.86-1.16,3.72c-0.67,0.83-2.16,0.35-3.08,0.33c-1.36-0.03-2.71,0.04-4.06,0.21 c-1.72,0.22-4.81,0.42-5.85,2.03c-1.25,1.94,0.7,3.8,1.93,5.13c1.68,1.82,3.6,3.27,5.67,4.62c1.14,0.74,1.08,1.25,0.59,2.47 c-0.51,1.28-0.93,2.59-1.25,3.92c-0.44,1.86-1.34,5.14-0.4,6.93c1.16,2.23,3.65,1.11,5.37,0.35c2.37-1.05,4.49-2.47,6.49-4.1 c1.2-0.97,1.67-0.56,2.78,0.35c1.06,0.86,2.17,1.65,3.35,2.35c1.59,0.95,4.49,2.84,6.43,2.36c2.4-0.58,2-3.33,1.8-5.2 c-0.29-2.64-1.16-4.97-1.98-7.47c-0.5-1.54,0.7-1.87,1.83-2.64c1.09-0.73,2.12-1.54,3.09-2.42c1.41-1.28,4.24-3.58,3.84-5.73 c-0.45-2.42-4.05-2.66-6-2.93c-1.34-0.19-2.68-0.26-4.03-0.24C8.93-7.54,6.7-6.89,6.38-8.33z"></path>
<animateTransform attributeName="transform" type="rotate" dur="0.7142857142857142s" repeatCount="indefinite" keyTimes="0;0.5;1" calcMode="spline" keySplines="0.4 0 0.6 1;0.4 0 0.6 1" begin="-0.15278838808250572s" values="-10;10;-10"></animateTransform>
</g>
</g><g transform="translate(1068.19586366459 621.852130632291) rotate(333.66542030404736) scale(0.2810466756132372)">
<g>
<path fill="#fff6a7" d="M6.38-8.33C5.84-10.74,5-13.08,3.83-15.26c-0.85-1.58-1.98-4.16-4.16-3.86c-1.93,0.26-3.02,2.91-3.79,4.44 c-0.51,1-0.95,2.03-1.32,3.09c-0.37,1.06-0.47,2.86-1.16,3.72c-0.67,0.83-2.16,0.35-3.08,0.33c-1.36-0.03-2.71,0.04-4.06,0.21 c-1.72,0.22-4.81,0.42-5.85,2.03c-1.25,1.94,0.7,3.8,1.93,5.13c1.68,1.82,3.6,3.27,5.67,4.62c1.14,0.74,1.08,1.25,0.59,2.47 c-0.51,1.28-0.93,2.59-1.25,3.92c-0.44,1.86-1.34,5.14-0.4,6.93c1.16,2.23,3.65,1.11,5.37,0.35c2.37-1.05,4.49-2.47,6.49-4.1 c1.2-0.97,1.67-0.56,2.78,0.35c1.06,0.86,2.17,1.65,3.35,2.35c1.59,0.95,4.49,2.84,6.43,2.36c2.4-0.58,2-3.33,1.8-5.2 c-0.29-2.64-1.16-4.97-1.98-7.47c-0.5-1.54,0.7-1.87,1.83-2.64c1.09-0.73,2.12-1.54,3.09-2.42c1.41-1.28,4.24-3.58,3.84-5.73 c-0.45-2.42-4.05-2.66-6-2.93c-1.34-0.19-2.68-0.26-4.03-0.24C8.93-7.54,6.7-6.89,6.38-8.33z"></path>
<animateTransform attributeName="transform" type="rotate" dur="0.7142857142857142s" repeatCount="indefinite" keyTimes="0;0.5;1" calcMode="spline" keySplines="0.4 0 0.6 1;0.4 0 0.6 1" begin="-0.18334606569900683s" values="-10;10;-10"></animateTransform>
</g>
</g><g transform="translate(1109.0194405577747 629.8091744352735) rotate(154.6437372032398) scale(0.2582472455914002)">
<g>
<path fill="#fff6a7" d="M6.38-8.33C5.84-10.74,5-13.08,3.83-15.26c-0.85-1.58-1.98-4.16-4.16-3.86c-1.93,0.26-3.02,2.91-3.79,4.44 c-0.51,1-0.95,2.03-1.32,3.09c-0.37,1.06-0.47,2.86-1.16,3.72c-0.67,0.83-2.16,0.35-3.08,0.33c-1.36-0.03-2.71,0.04-4.06,0.21 c-1.72,0.22-4.81,0.42-5.85,2.03c-1.25,1.94,0.7,3.8,1.93,5.13c1.68,1.82,3.6,3.27,5.67,4.62c1.14,0.74,1.08,1.25,0.59,2.47 c-0.51,1.28-0.93,2.59-1.25,3.92c-0.44,1.86-1.34,5.14-0.4,6.93c1.16,2.23,3.65,1.11,5.37,0.35c2.37-1.05,4.49-2.47,6.49-4.1 c1.2-0.97,1.67-0.56,2.78,0.35c1.06,0.86,2.17,1.65,3.35,2.35c1.59,0.95,4.49,2.84,6.43,2.36c2.4-0.58,2-3.33,1.8-5.2 c-0.29-2.64-1.16-4.97-1.98-7.47c-0.5-1.54,0.7-1.87,1.83-2.64c1.09-0.73,2.12-1.54,3.09-2.42c1.41-1.28,4.24-3.58,3.84-5.73 c-0.45-2.42-4.05-2.66-6-2.93c-1.34-0.19-2.68-0.26-4.03-0.24C8.93-7.54,6.7-6.89,6.38-8.33z"></path>
<animateTransform attributeName="transform" type="rotate" dur="0.7142857142857142s" repeatCount="indefinite" keyTimes="0;0.5;1" calcMode="spline" keySplines="0.4 0 0.6 1;0.4 0 0.6 1" begin="-0.213903743315508s" values="-10;10;-10"></animateTransform>
</g>
</g><g transform="translate(644.4204444315146 576.4191202403182) rotate(30.418620049120044) scale(0.34667635154304766)">
<g>
<path fill="#fff6a7" d="M6.38-8.33C5.84-10.74,5-13.08,3.83-15.26c-0.85-1.58-1.98-4.16-4.16-3.86c-1.93,0.26-3.02,2.91-3.79,4.44 c-0.51,1-0.95,2.03-1.32,3.09c-0.37,1.06-0.47,2.86-1.16,3.72c-0.67,0.83-2.16,0.35-3.08,0.33c-1.36-0.03-2.71,0.04-4.06,0.21 c-1.72,0.22-4.81,0.42-5.85,2.03c-1.25,1.94,0.7,3.8,1.93,5.13c1.68,1.82,3.6,3.27,5.67,4.62c1.14,0.74,1.08,1.25,0.59,2.47 c-0.51,1.28-0.93,2.59-1.25,3.92c-0.44,1.86-1.34,5.14-0.4,6.93c1.16,2.23,3.65,1.11,5.37,0.35c2.37-1.05,4.49-2.47,6.49-4.1 c1.2-0.97,1.67-0.56,2.78,0.35c1.06,0.86,2.17,1.65,3.35,2.35c1.59,0.95,4.49,2.84,6.43,2.36c2.4-0.58,2-3.33,1.8-5.2 c-0.29-2.64-1.16-4.97-1.98-7.47c-0.5-1.54,0.7-1.87,1.83-2.64c1.09-0.73,2.12-1.54,3.09-2.42c1.41-1.28,4.24-3.58,3.84-5.73 c-0.45-2.42-4.05-2.66-6-2.93c-1.34-0.19-2.68-0.26-4.03-0.24C8.93-7.54,6.7-6.89,6.38-8.33z"></path>
<animateTransform attributeName="transform" type="rotate" dur="0.7142857142857142s" repeatCount="indefinite" keyTimes="0;0.5;1" calcMode="spline" keySplines="0.4 0 0.6 1;0.4 0 0.6 1" begin="-0.24446142093200912s" values="-10;10;-10"></animateTransform>
</g>
</g><g transform="translate(93.0202256632723 615.7418512624264) rotate(219.71846318106094) scale(0.2830410573765299)">
<g>
<path fill="#fff6a7" d="M6.38-8.33C5.84-10.74,5-13.08,3.83-15.26c-0.85-1.58-1.98-4.16-4.16-3.86c-1.93,0.26-3.02,2.91-3.79,4.44 c-0.51,1-0.95,2.03-1.32,3.09c-0.37,1.06-0.47,2.86-1.16,3.72c-0.67,0.83-2.16,0.35-3.08,0.33c-1.36-0.03-2.71,0.04-4.06,0.21 c-1.72,0.22-4.81,0.42-5.85,2.03c-1.25,1.94,0.7,3.8,1.93,5.13c1.68,1.82,3.6,3.27,5.67,4.62c1.14,0.74,1.08,1.25,0.59,2.47 c-0.51,1.28-0.93,2.59-1.25,3.92c-0.44,1.86-1.34,5.14-0.4,6.93c1.16,2.23,3.65,1.11,5.37,0.35c2.37-1.05,4.49-2.47,6.49-4.1 c1.2-0.97,1.67-0.56,2.78,0.35c1.06,0.86,2.17,1.65,3.35,2.35c1.59,0.95,4.49,2.84,6.43,2.36c2.4-0.58,2-3.33,1.8-5.2 c-0.29-2.64-1.16-4.97-1.98-7.47c-0.5-1.54,0.7-1.87,1.83-2.64c1.09-0.73,2.12-1.54,3.09-2.42c1.41-1.28,4.24-3.58,3.84-5.73 c-0.45-2.42-4.05-2.66-6-2.93c-1.34-0.19-2.68-0.26-4.03-0.24C8.93-7.54,6.7-6.89,6.38-8.33z"></path>
<animateTransform attributeName="transform" type="rotate" dur="0.7142857142857142s" repeatCount="indefinite" keyTimes="0;0.5;1" calcMode="spline" keySplines="0.4 0 0.6 1;0.4 0 0.6 1" begin="-0.2750190985485103s" values="-10;10;-10"></animateTransform>
</g>
</g><g transform="translate(667.8356593259338 479.3766143480301) rotate(146.016773775207) scale(0.35705141563672627)">
<g>
<path fill="#fff6a7" d="M6.38-8.33C5.84-10.74,5-13.08,3.83-15.26c-0.85-1.58-1.98-4.16-4.16-3.86c-1.93,0.26-3.02,2.91-3.79,4.44 c-0.51,1-0.95,2.03-1.32,3.09c-0.37,1.06-0.47,2.86-1.16,3.72c-0.67,0.83-2.16,0.35-3.08,0.33c-1.36-0.03-2.71,0.04-4.06,0.21 c-1.72,0.22-4.81,0.42-5.85,2.03c-1.25,1.94,0.7,3.8,1.93,5.13c1.68,1.82,3.6,3.27,5.67,4.62c1.14,0.74,1.08,1.25,0.59,2.47 c-0.51,1.28-0.93,2.59-1.25,3.92c-0.44,1.86-1.34,5.14-0.4,6.93c1.16,2.23,3.65,1.11,5.37,0.35c2.37-1.05,4.49-2.47,6.49-4.1 c1.2-0.97,1.67-0.56,2.78,0.35c1.06,0.86,2.17,1.65,3.35,2.35c1.59,0.95,4.49,2.84,6.43,2.36c2.4-0.58,2-3.33,1.8-5.2 c-0.29-2.64-1.16-4.97-1.98-7.47c-0.5-1.54,0.7-1.87,1.83-2.64c1.09-0.73,2.12-1.54,3.09-2.42c1.41-1.28,4.24-3.58,3.84-5.73 c-0.45-2.42-4.05-2.66-6-2.93c-1.34-0.19-2.68-0.26-4.03-0.24C8.93-7.54,6.7-6.89,6.38-8.33z"></path>
<animateTransform attributeName="transform" type="rotate" dur="0.7142857142857142s" repeatCount="indefinite" keyTimes="0;0.5;1" calcMode="spline" keySplines="0.4 0 0.6 1;0.4 0 0.6 1" begin="-0.30557677616501144s" values="-10;10;-10"></animateTransform>
</g>
</g><g transform="translate(649.8582399170072 53.520042731266216) rotate(167.38232912589868) scale(0.2830803674495578)">
<g>
<path fill="#fff6a7" d="M6.38-8.33C5.84-10.74,5-13.08,3.83-15.26c-0.85-1.58-1.98-4.16-4.16-3.86c-1.93,0.26-3.02,2.91-3.79,4.44 c-0.51,1-0.95,2.03-1.32,3.09c-0.37,1.06-0.47,2.86-1.16,3.72c-0.67,0.83-2.16,0.35-3.08,0.33c-1.36-0.03-2.71,0.04-4.06,0.21 c-1.72,0.22-4.81,0.42-5.85,2.03c-1.25,1.94,0.7,3.8,1.93,5.13c1.68,1.82,3.6,3.27,5.67,4.62c1.14,0.74,1.08,1.25,0.59,2.47 c-0.51,1.28-0.93,2.59-1.25,3.92c-0.44,1.86-1.34,5.14-0.4,6.93c1.16,2.23,3.65,1.11,5.37,0.35c2.37-1.05,4.49-2.47,6.49-4.1 c1.2-0.97,1.67-0.56,2.78,0.35c1.06,0.86,2.17,1.65,3.35,2.35c1.59,0.95,4.49,2.84,6.43,2.36c2.4-0.58,2-3.33,1.8-5.2 c-0.29-2.64-1.16-4.97-1.98-7.47c-0.5-1.54,0.7-1.87,1.83-2.64c1.09-0.73,2.12-1.54,3.09-2.42c1.41-1.28,4.24-3.58,3.84-5.73 c-0.45-2.42-4.05-2.66-6-2.93c-1.34-0.19-2.68-0.26-4.03-0.24C8.93-7.54,6.7-6.89,6.38-8.33z"></path>
<animateTransform attributeName="transform" type="rotate" dur="0.7142857142857142s" repeatCount="indefinite" keyTimes="0;0.5;1" calcMode="spline" keySplines="0.4 0 0.6 1;0.4 0 0.6 1" begin="-0.3361344537815126s" values="-10;10;-10"></animateTransform>
</g>
</g><g transform="translate(1108.1359650261857 663.4482712476146) rotate(187.45425082056175) scale(0.314690000619033)">
<g>
<path fill="#f6dfa3" d="M6.38-8.33C5.84-10.74,5-13.08,3.83-15.26c-0.85-1.58-1.98-4.16-4.16-3.86c-1.93,0.26-3.02,2.91-3.79,4.44 c-0.51,1-0.95,2.03-1.32,3.09c-0.37,1.06-0.47,2.86-1.16,3.72c-0.67,0.83-2.16,0.35-3.08,0.33c-1.36-0.03-2.71,0.04-4.06,0.21 c-1.72,0.22-4.81,0.42-5.85,2.03c-1.25,1.94,0.7,3.8,1.93,5.13c1.68,1.82,3.6,3.27,5.67,4.62c1.14,0.74,1.08,1.25,0.59,2.47 c-0.51,1.28-0.93,2.59-1.25,3.92c-0.44,1.86-1.34,5.14-0.4,6.93c1.16,2.23,3.65,1.11,5.37,0.35c2.37-1.05,4.49-2.47,6.49-4.1 c1.2-0.97,1.67-0.56,2.78,0.35c1.06,0.86,2.17,1.65,3.35,2.35c1.59,0.95,4.49,2.84,6.43,2.36c2.4-0.58,2-3.33,1.8-5.2 c-0.29-2.64-1.16-4.97-1.98-7.47c-0.5-1.54,0.7-1.87,1.83-2.64c1.09-0.73,2.12-1.54,3.09-2.42c1.41-1.28,4.24-3.58,3.84-5.73 c-0.45-2.42-4.05-2.66-6-2.93c-1.34-0.19-2.68-0.26-4.03-0.24C8.93-7.54,6.7-6.89,6.38-8.33z"></path>
<animateTransform attributeName="transform" type="rotate" dur="0.7142857142857142s" repeatCount="indefinite" keyTimes="0;0.5;1" calcMode="spline" keySplines="0.4 0 0.6 1;0.4 0 0.6 1" begin="-0.36669213139801365s" values="-10;10;-10"></animateTransform>
</g>
</g><g transform="translate(606.120894587788 670.8629305577102) rotate(129.95289981642787) scale(0.28432506545835345)">
<g>
<path fill="#fff6a7" d="M6.38-8.33C5.84-10.74,5-13.08,3.83-15.26c-0.85-1.58-1.98-4.16-4.16-3.86c-1.93,0.26-3.02,2.91-3.79,4.44 c-0.51,1-0.95,2.03-1.32,3.09c-0.37,1.06-0.47,2.86-1.16,3.72c-0.67,0.83-2.16,0.35-3.08,0.33c-1.36-0.03-2.71,0.04-4.06,0.21 c-1.72,0.22-4.81,0.42-5.85,2.03c-1.25,1.94,0.7,3.8,1.93,5.13c1.68,1.82,3.6,3.27,5.67,4.62c1.14,0.74,1.08,1.25,0.59,2.47 c-0.51,1.28-0.93,2.59-1.25,3.92c-0.44,1.86-1.34,5.14-0.4,6.93c1.16,2.23,3.65,1.11,5.37,0.35c2.37-1.05,4.49-2.47,6.49-4.1 c1.2-0.97,1.67-0.56,2.78,0.35c1.06,0.86,2.17,1.65,3.35,2.35c1.59,0.95,4.49,2.84,6.43,2.36c2.4-0.58,2-3.33,1.8-5.2 c-0.29-2.64-1.16-4.97-1.98-7.47c-0.5-1.54,0.7-1.87,1.83-2.64c1.09-0.73,2.12-1.54,3.09-2.42c1.41-1.28,4.24-3.58,3.84-5.73 c-0.45-2.42-4.05-2.66-6-2.93c-1.34-0.19-2.68-0.26-4.03-0.24C8.93-7.54,6.7-6.89,6.38-8.33z"></path>
<animateTransform attributeName="transform" type="rotate" dur="0.7142857142857142s" repeatCount="indefinite" keyTimes="0;0.5;1" calcMode="spline" keySplines="0.4 0 0.6 1;0.4 0 0.6 1" begin="-0.39724980901451484s" values="-10;10;-10"></animateTransform>
</g>
</g><g transform="translate(368.7629266351837 626.4381945399344) rotate(53.24664042839095) scale(0.34754071542764)">
<g>
<path fill="#f6dfa3" d="M6.38-8.33C5.84-10.74,5-13.08,3.83-15.26c-0.85-1.58-1.98-4.16-4.16-3.86c-1.93,0.26-3.02,2.91-3.79,4.44 c-0.51,1-0.95,2.03-1.32,3.09c-0.37,1.06-0.47,2.86-1.16,3.72c-0.67,0.83-2.16,0.35-3.08,0.33c-1.36-0.03-2.71,0.04-4.06,0.21 c-1.72,0.22-4.81,0.42-5.85,2.03c-1.25,1.94,0.7,3.8,1.93,5.13c1.68,1.82,3.6,3.27,5.67,4.62c1.14,0.74,1.08,1.25,0.59,2.47 c-0.51,1.28-0.93,2.59-1.25,3.92c-0.44,1.86-1.34,5.14-0.4,6.93c1.16,2.23,3.65,1.11,5.37,0.35c2.37-1.05,4.49-2.47,6.49-4.1 c1.2-0.97,1.67-0.56,2.78,0.35c1.06,0.86,2.17,1.65,3.35,2.35c1.59,0.95,4.49,2.84,6.43,2.36c2.4-0.58,2-3.33,1.8-5.2 c-0.29-2.64-1.16-4.97-1.98-7.47c-0.5-1.54,0.7-1.87,1.83-2.64c1.09-0.73,2.12-1.54,3.09-2.42c1.41-1.28,4.24-3.58,3.84-5.73 c-0.45-2.42-4.05-2.66-6-2.93c-1.34-0.19-2.68-0.26-4.03-0.24C8.93-7.54,6.7-6.89,6.38-8.33z"></path>
<animateTransform attributeName="transform" type="rotate" dur="0.7142857142857142s" repeatCount="indefinite" keyTimes="0;0.5;1" calcMode="spline" keySplines="0.4 0 0.6 1;0.4 0 0.6 1" begin="-0.427807486631016s" values="-10;10;-10"></animateTransform>
</g>
</g><g transform="translate(1104.8783330939416 368.4210384371864) rotate(88.88882492387192) scale(0.2721718316447344)">
<g>
<path fill="#f6dfa3" d="M6.38-8.33C5.84-10.74,5-13.08,3.83-15.26c-0.85-1.58-1.98-4.16-4.16-3.86c-1.93,0.26-3.02,2.91-3.79,4.44 c-0.51,1-0.95,2.03-1.32,3.09c-0.37,1.06-0.47,2.86-1.16,3.72c-0.67,0.83-2.16,0.35-3.08,0.33c-1.36-0.03-2.71,0.04-4.06,0.21 c-1.72,0.22-4.81,0.42-5.85,2.03c-1.25,1.94,0.7,3.8,1.93,5.13c1.68,1.82,3.6,3.27,5.67,4.62c1.14,0.74,1.08,1.25,0.59,2.47 c-0.51,1.28-0.93,2.59-1.25,3.92c-0.44,1.86-1.34,5.14-0.4,6.93c1.16,2.23,3.65,1.11,5.37,0.35c2.37-1.05,4.49-2.47,6.49-4.1 c1.2-0.97,1.67-0.56,2.78,0.35c1.06,0.86,2.17,1.65,3.35,2.35c1.59,0.95,4.49,2.84,6.43,2.36c2.4-0.58,2-3.33,1.8-5.2 c-0.29-2.64-1.16-4.97-1.98-7.47c-0.5-1.54,0.7-1.87,1.83-2.64c1.09-0.73,2.12-1.54,3.09-2.42c1.41-1.28,4.24-3.58,3.84-5.73 c-0.45-2.42-4.05-2.66-6-2.93c-1.34-0.19-2.68-0.26-4.03-0.24C8.93-7.54,6.7-6.89,6.38-8.33z"></path>
<animateTransform attributeName="transform" type="rotate" dur="0.7142857142857142s" repeatCount="indefinite" keyTimes="0;0.5;1" calcMode="spline" keySplines="0.4 0 0.6 1;0.4 0 0.6 1" begin="-0.45836516424751717s" values="-10;10;-10"></animateTransform>
</g>
</g><g transform="translate(630.843429153521 695.020890613975) rotate(264.1296884623513) scale(0.2705767332886456)">
<g>
<path fill="#f6dfa3" d="M6.38-8.33C5.84-10.74,5-13.08,3.83-15.26c-0.85-1.58-1.98-4.16-4.16-3.86c-1.93,0.26-3.02,2.91-3.79,4.44 c-0.51,1-0.95,2.03-1.32,3.09c-0.37,1.06-0.47,2.86-1.16,3.72c-0.67,0.83-2.16,0.35-3.08,0.33c-1.36-0.03-2.71,0.04-4.06,0.21 c-1.72,0.22-4.81,0.42-5.85,2.03c-1.25,1.94,0.7,3.8,1.93,5.13c1.68,1.82,3.6,3.27,5.67,4.62c1.14,0.74,1.08,1.25,0.59,2.47 c-0.51,1.28-0.93,2.59-1.25,3.92c-0.44,1.86-1.34,5.14-0.4,6.93c1.16,2.23,3.65,1.11,5.37,0.35c2.37-1.05,4.49-2.47,6.49-4.1 c1.2-0.97,1.67-0.56,2.78,0.35c1.06,0.86,2.17,1.65,3.35,2.35c1.59,0.95,4.49,2.84,6.43,2.36c2.4-0.58,2-3.33,1.8-5.2 c-0.29-2.64-1.16-4.97-1.98-7.47c-0.5-1.54,0.7-1.87,1.83-2.64c1.09-0.73,2.12-1.54,3.09-2.42c1.41-1.28,4.24-3.58,3.84-5.73 c-0.45-2.42-4.05-2.66-6-2.93c-1.34-0.19-2.68-0.26-4.03-0.24C8.93-7.54,6.7-6.89,6.38-8.33z"></path>
<animateTransform attributeName="transform" type="rotate" dur="0.7142857142857142s" repeatCount="indefinite" keyTimes="0;0.5;1" calcMode="spline" keySplines="0.4 0 0.6 1;0.4 0 0.6 1" begin="-0.48892284186401824s" values="-10;10;-10"></animateTransform>
</g>
</g><g transform="translate(891.2210019609175 59.21571337004178) rotate(232.39995658528397) scale(0.35214429108203466)">
<g>
<path fill="#f6dfa3" d="M6.38-8.33C5.84-10.74,5-13.08,3.83-15.26c-0.85-1.58-1.98-4.16-4.16-3.86c-1.93,0.26-3.02,2.91-3.79,4.44 c-0.51,1-0.95,2.03-1.32,3.09c-0.37,1.06-0.47,2.86-1.16,3.72c-0.67,0.83-2.16,0.35-3.08,0.33c-1.36-0.03-2.71,0.04-4.06,0.21 c-1.72,0.22-4.81,0.42-5.85,2.03c-1.25,1.94,0.7,3.8,1.93,5.13c1.68,1.82,3.6,3.27,5.67,4.62c1.14,0.74,1.08,1.25,0.59,2.47 c-0.51,1.28-0.93,2.59-1.25,3.92c-0.44,1.86-1.34,5.14-0.4,6.93c1.16,2.23,3.65,1.11,5.37,0.35c2.37-1.05,4.49-2.47,6.49-4.1 c1.2-0.97,1.67-0.56,2.78,0.35c1.06,0.86,2.17,1.65,3.35,2.35c1.59,0.95,4.49,2.84,6.43,2.36c2.4-0.58,2-3.33,1.8-5.2 c-0.29-2.64-1.16-4.97-1.98-7.47c-0.5-1.54,0.7-1.87,1.83-2.64c1.09-0.73,2.12-1.54,3.09-2.42c1.41-1.28,4.24-3.58,3.84-5.73 c-0.45-2.42-4.05-2.66-6-2.93c-1.34-0.19-2.68-0.26-4.03-0.24C8.93-7.54,6.7-6.89,6.38-8.33z"></path>
<animateTransform attributeName="transform" type="rotate" dur="0.7142857142857142s" repeatCount="indefinite" keyTimes="0;0.5;1" calcMode="spline" keySplines="0.4 0 0.6 1;0.4 0 0.6 1" begin="-0.5194805194805194s" values="-10;10;-10"></animateTransform>
</g>
</g><g transform="translate(476.0379450189449 442.4374620985219) rotate(131.0278687349059) scale(0.3194373482815522)">
<g>
<path fill="#f6dfa3" d="M6.38-8.33C5.84-10.74,5-13.08,3.83-15.26c-0.85-1.58-1.98-4.16-4.16-3.86c-1.93,0.26-3.02,2.91-3.79,4.44 c-0.51,1-0.95,2.03-1.32,3.09c-0.37,1.06-0.47,2.86-1.16,3.72c-0.67,0.83-2.16,0.35-3.08,0.33c-1.36-0.03-2.71,0.04-4.06,0.21 c-1.72,0.22-4.81,0.42-5.85,2.03c-1.25,1.94,0.7,3.8,1.93,5.13c1.68,1.82,3.6,3.27,5.67,4.62c1.14,0.74,1.08,1.25,0.59,2.47 c-0.51,1.28-0.93,2.59-1.25,3.92c-0.44,1.86-1.34,5.14-0.4,6.93c1.16,2.23,3.65,1.11,5.37,0.35c2.37-1.05,4.49-2.47,6.49-4.1 c1.2-0.97,1.67-0.56,2.78,0.35c1.06,0.86,2.17,1.65,3.35,2.35c1.59,0.95,4.49,2.84,6.43,2.36c2.4-0.58,2-3.33,1.8-5.2 c-0.29-2.64-1.16-4.97-1.98-7.47c-0.5-1.54,0.7-1.87,1.83-2.64c1.09-0.73,2.12-1.54,3.09-2.42c1.41-1.28,4.24-3.58,3.84-5.73 c-0.45-2.42-4.05-2.66-6-2.93c-1.34-0.19-2.68-0.26-4.03-0.24C8.93-7.54,6.7-6.89,6.38-8.33z"></path>
<animateTransform attributeName="transform" type="rotate" dur="0.7142857142857142s" repeatCount="indefinite" keyTimes="0;0.5;1" calcMode="spline" keySplines="0.4 0 0.6 1;0.4 0 0.6 1" begin="-0.5500381970970206s" values="-10;10;-10"></animateTransform>
</g>
</g><g transform="translate(1035.403081732714 593.4031862528356) rotate(49.23523170132733) scale(0.335952242579808)">
<g>
<path fill="#fff6a7" d="M6.38-8.33C5.84-10.74,5-13.08,3.83-15.26c-0.85-1.58-1.98-4.16-4.16-3.86c-1.93,0.26-3.02,2.91-3.79,4.44 c-0.51,1-0.95,2.03-1.32,3.09c-0.37,1.06-0.47,2.86-1.16,3.72c-0.67,0.83-2.16,0.35-3.08,0.33c-1.36-0.03-2.71,0.04-4.06,0.21 c-1.72,0.22-4.81,0.42-5.85,2.03c-1.25,1.94,0.7,3.8,1.93,5.13c1.68,1.82,3.6,3.27,5.67,4.62c1.14,0.74,1.08,1.25,0.59,2.47 c-0.51,1.28-0.93,2.59-1.25,3.92c-0.44,1.86-1.34,5.14-0.4,6.93c1.16,2.23,3.65,1.11,5.37,0.35c2.37-1.05,4.49-2.47,6.49-4.1 c1.2-0.97,1.67-0.56,2.78,0.35c1.06,0.86,2.17,1.65,3.35,2.35c1.59,0.95,4.49,2.84,6.43,2.36c2.4-0.58,2-3.33,1.8-5.2 c-0.29-2.64-1.16-4.97-1.98-7.47c-0.5-1.54,0.7-1.87,1.83-2.64c1.09-0.73,2.12-1.54,3.09-2.42c1.41-1.28,4.24-3.58,3.84-5.73 c-0.45-2.42-4.05-2.66-6-2.93c-1.34-0.19-2.68-0.26-4.03-0.24C8.93-7.54,6.7-6.89,6.38-8.33z"></path>
<animateTransform attributeName="transform" type="rotate" dur="0.7142857142857142s" repeatCount="indefinite" keyTimes="0;0.5;1" calcMode="spline" keySplines="0.4 0 0.6 1;0.4 0 0.6 1" begin="-0.5805958747135217s" values="-10;10;-10"></animateTransform>
</g>
</g><g transform="translate(375.36386774572696 473.61170743127303) rotate(316.2030527140138) scale(0.27491643631349777)">
<g>
<path fill="#f6dfa3" d="M6.38-8.33C5.84-10.74,5-13.08,3.83-15.26c-0.85-1.58-1.98-4.16-4.16-3.86c-1.93,0.26-3.02,2.91-3.79,4.44 c-0.51,1-0.95,2.03-1.32,3.09c-0.37,1.06-0.47,2.86-1.16,3.72c-0.67,0.83-2.16,0.35-3.08,0.33c-1.36-0.03-2.71,0.04-4.06,0.21 c-1.72,0.22-4.81,0.42-5.85,2.03c-1.25,1.94,0.7,3.8,1.93,5.13c1.68,1.82,3.6,3.27,5.67,4.62c1.14,0.74,1.08,1.25,0.59,2.47 c-0.51,1.28-0.93,2.59-1.25,3.92c-0.44,1.86-1.34,5.14-0.4,6.93c1.16,2.23,3.65,1.11,5.37,0.35c2.37-1.05,4.49-2.47,6.49-4.1 c1.2-0.97,1.67-0.56,2.78,0.35c1.06,0.86,2.17,1.65,3.35,2.35c1.59,0.95,4.49,2.84,6.43,2.36c2.4-0.58,2-3.33,1.8-5.2 c-0.29-2.64-1.16-4.97-1.98-7.47c-0.5-1.54,0.7-1.87,1.83-2.64c1.09-0.73,2.12-1.54,3.09-2.42c1.41-1.28,4.24-3.58,3.84-5.73 c-0.45-2.42-4.05-2.66-6-2.93c-1.34-0.19-2.68-0.26-4.03-0.24C8.93-7.54,6.7-6.89,6.38-8.33z"></path>
<animateTransform attributeName="transform" type="rotate" dur="0.7142857142857142s" repeatCount="indefinite" keyTimes="0;0.5;1" calcMode="spline" keySplines="0.4 0 0.6 1;0.4 0 0.6 1" begin="-0.6111535523300229s" values="-10;10;-10"></animateTransform>
</g>
</g><g transform="translate(259.61266587415065 731.546292246175) rotate(1.6706422167309842) scale(0.31854165308926297)">
<g>
<path fill="#fff6a7" d="M6.38-8.33C5.84-10.74,5-13.08,3.83-15.26c-0.85-1.58-1.98-4.16-4.16-3.86c-1.93,0.26-3.02,2.91-3.79,4.44 c-0.51,1-0.95,2.03-1.32,3.09c-0.37,1.06-0.47,2.86-1.16,3.72c-0.67,0.83-2.16,0.35-3.08,0.33c-1.36-0.03-2.71,0.04-4.06,0.21 c-1.72,0.22-4.81,0.42-5.85,2.03c-1.25,1.94,0.7,3.8,1.93,5.13c1.68,1.82,3.6,3.27,5.67,4.62c1.14,0.74,1.08,1.25,0.59,2.47 c-0.51,1.28-0.93,2.59-1.25,3.92c-0.44,1.86-1.34,5.14-0.4,6.93c1.16,2.23,3.65,1.11,5.37,0.35c2.37-1.05,4.49-2.47,6.49-4.1 c1.2-0.97,1.67-0.56,2.78,0.35c1.06,0.86,2.17,1.65,3.35,2.35c1.59,0.95,4.49,2.84,6.43,2.36c2.4-0.58,2-3.33,1.8-5.2 c-0.29-2.64-1.16-4.97-1.98-7.47c-0.5-1.54,0.7-1.87,1.83-2.64c1.09-0.73,2.12-1.54,3.09-2.42c1.41-1.28,4.24-3.58,3.84-5.73 c-0.45-2.42-4.05-2.66-6-2.93c-1.34-0.19-2.68-0.26-4.03-0.24C8.93-7.54,6.7-6.89,6.38-8.33z"></path>
<animateTransform attributeName="transform" type="rotate" dur="0.7142857142857142s" repeatCount="indefinite" keyTimes="0;0.5;1" calcMode="spline" keySplines="0.4 0 0.6 1;0.4 0 0.6 1" begin="-0.641711229946524s" values="-10;10;-10"></animateTransform>
</g>
</g><g transform="translate(566.2638992477868 17.141295007014186) rotate(86.21708620809075) scale(0.30169438434832685)">
<g>
<path fill="#f6dfa3" d="M6.38-8.33C5.84-10.74,5-13.08,3.83-15.26c-0.85-1.58-1.98-4.16-4.16-3.86c-1.93,0.26-3.02,2.91-3.79,4.44 c-0.51,1-0.95,2.03-1.32,3.09c-0.37,1.06-0.47,2.86-1.16,3.72c-0.67,0.83-2.16,0.35-3.08,0.33c-1.36-0.03-2.71,0.04-4.06,0.21 c-1.72,0.22-4.81,0.42-5.85,2.03c-1.25,1.94,0.7,3.8,1.93,5.13c1.68,1.82,3.6,3.27,5.67,4.62c1.14,0.74,1.08,1.25,0.59,2.47 c-0.51,1.28-0.93,2.59-1.25,3.92c-0.44,1.86-1.34,5.14-0.4,6.93c1.16,2.23,3.65,1.11,5.37,0.35c2.37-1.05,4.49-2.47,6.49-4.1 c1.2-0.97,1.67-0.56,2.78,0.35c1.06,0.86,2.17,1.65,3.35,2.35c1.59,0.95,4.49,2.84,6.43,2.36c2.4-0.58,2-3.33,1.8-5.2 c-0.29-2.64-1.16-4.97-1.98-7.47c-0.5-1.54,0.7-1.87,1.83-2.64c1.09-0.73,2.12-1.54,3.09-2.42c1.41-1.28,4.24-3.58,3.84-5.73 c-0.45-2.42-4.05-2.66-6-2.93c-1.34-0.19-2.68-0.26-4.03-0.24C8.93-7.54,6.7-6.89,6.38-8.33z"></path>
<animateTransform attributeName="transform" type="rotate" dur="0.7142857142857142s" repeatCount="indefinite" keyTimes="0;0.5;1" calcMode="spline" keySplines="0.4 0 0.6 1;0.4 0 0.6 1" begin="-0.6722689075630252s" values="-10;10;-10"></animateTransform>
</g>
</g><g transform="translate(621.6755146622806 352.9559644711754) rotate(331.09338610328734) scale(0.3075549876765175)">
<g>
<path fill="#fff6a7" d="M6.38-8.33C5.84-10.74,5-13.08,3.83-15.26c-0.85-1.58-1.98-4.16-4.16-3.86c-1.93,0.26-3.02,2.91-3.79,4.44 c-0.51,1-0.95,2.03-1.32,3.09c-0.37,1.06-0.47,2.86-1.16,3.72c-0.67,0.83-2.16,0.35-3.08,0.33c-1.36-0.03-2.71,0.04-4.06,0.21 c-1.72,0.22-4.81,0.42-5.85,2.03c-1.25,1.94,0.7,3.8,1.93,5.13c1.68,1.82,3.6,3.27,5.67,4.62c1.14,0.74,1.08,1.25,0.59,2.47 c-0.51,1.28-0.93,2.59-1.25,3.92c-0.44,1.86-1.34,5.14-0.4,6.93c1.16,2.23,3.65,1.11,5.37,0.35c2.37-1.05,4.49-2.47,6.49-4.1 c1.2-0.97,1.67-0.56,2.78,0.35c1.06,0.86,2.17,1.65,3.35,2.35c1.59,0.95,4.49,2.84,6.43,2.36c2.4-0.58,2-3.33,1.8-5.2 c-0.29-2.64-1.16-4.97-1.98-7.47c-0.5-1.54,0.7-1.87,1.83-2.64c1.09-0.73,2.12-1.54,3.09-2.42c1.41-1.28,4.24-3.58,3.84-5.73 c-0.45-2.42-4.05-2.66-6-2.93c-1.34-0.19-2.68-0.26-4.03-0.24C8.93-7.54,6.7-6.89,6.38-8.33z"></path>
<animateTransform attributeName="transform" type="rotate" dur="0.7142857142857142s" repeatCount="indefinite" keyTimes="0;0.5;1" calcMode="spline" keySplines="0.4 0 0.6 1;0.4 0 0.6 1" begin="-0.7028265851795263s" values="-10;10;-10"></animateTransform>
</g>
</g><g transform="translate(81.03812622768368 729.8322010304671) rotate(215.44028419615088) scale(0.24810981954874853)">
<g>
<path fill="#fff6a7" d="M6.38-8.33C5.84-10.74,5-13.08,3.83-15.26c-0.85-1.58-1.98-4.16-4.16-3.86c-1.93,0.26-3.02,2.91-3.79,4.44 c-0.51,1-0.95,2.03-1.32,3.09c-0.37,1.06-0.47,2.86-1.16,3.72c-0.67,0.83-2.16,0.35-3.08,0.33c-1.36-0.03-2.71,0.04-4.06,0.21 c-1.72,0.22-4.81,0.42-5.85,2.03c-1.25,1.94,0.7,3.8,1.93,5.13c1.68,1.82,3.6,3.27,5.67,4.62c1.14,0.74,1.08,1.25,0.59,2.47 c-0.51,1.28-0.93,2.59-1.25,3.92c-0.44,1.86-1.34,5.14-0.4,6.93c1.16,2.23,3.65,1.11,5.37,0.35c2.37-1.05,4.49-2.47,6.49-4.1 c1.2-0.97,1.67-0.56,2.78,0.35c1.06,0.86,2.17,1.65,3.35,2.35c1.59,0.95,4.49,2.84,6.43,2.36c2.4-0.58,2-3.33,1.8-5.2 c-0.29-2.64-1.16-4.97-1.98-7.47c-0.5-1.54,0.7-1.87,1.83-2.64c1.09-0.73,2.12-1.54,3.09-2.42c1.41-1.28,4.24-3.58,3.84-5.73 c-0.45-2.42-4.05-2.66-6-2.93c-1.34-0.19-2.68-0.26-4.03-0.24C8.93-7.54,6.7-6.89,6.38-8.33z"></path>
<animateTransform attributeName="transform" type="rotate" dur="0.7142857142857142s" repeatCount="indefinite" keyTimes="0;0.5;1" calcMode="spline" keySplines="0.4 0 0.6 1;0.4 0 0.6 1" begin="-0.7333842627960273s" values="-10;10;-10"></animateTransform>
</g>
</g><g transform="translate(417.3269422109167 316.3367241251781) rotate(7.3134269338184055) scale(0.3079765832704156)">
<circle cx="0" cy="0" r="5" fill="#fff6a7"></circle>
<animate attributeName="opacity" dur="0.7142857142857142s" repeatCount="indefinite" keyTimes="0;0.5;1" calcMode="spline" keySplines="0.2 0 0.8 1;0.2 0 0.8 1" begin="-0.19098548510313212s" values="1;0.5;1"></animate>
</g><g transform="translate(74.90691944044514 112.42101260621236) rotate(183.1204481675896) scale(0.2922795833770086)">
<circle cx="0" cy="0" r="5" fill="#fff6a7"></circle>
<animate attributeName="opacity" dur="0.7142857142857142s" repeatCount="indefinite" keyTimes="0;0.5;1" calcMode="spline" keySplines="0.2 0 0.8 1;0.2 0 0.8 1" begin="-0.19862490450725742s" values="1;0.5;1"></animate>
</g><g transform="translate(137.88069039380713 216.67097848730387) rotate(198.66323312217705) scale(0.28512358071546934)">
<circle cx="0" cy="0" r="5" fill="#fff6a7"></circle>
<animate attributeName="opacity" dur="0.7142857142857142s" repeatCount="indefinite" keyTimes="0;0.5;1" calcMode="spline" keySplines="0.2 0 0.8 1;0.2 0 0.8 1" begin="-0.20626432391138272s" values="1;0.5;1"></animate>
</g><g transform="translate(489.56102746278003 356.37084622731373) rotate(296.8265443167746) scale(0.3156303665604032)">
<circle cx="0" cy="0" r="5" fill="#fff6a7"></circle>
<animate attributeName="opacity" dur="0.7142857142857142s" repeatCount="indefinite" keyTimes="0;0.5;1" calcMode="spline" keySplines="0.2 0 0.8 1;0.2 0 0.8 1" begin="-0.213903743315508s" values="1;0.5;1"></animate>
</g><g transform="translate(264.4155493466082 517.0043073146539) rotate(331.2440794719856) scale(0.29705227432117864)">
<circle cx="0" cy="0" r="5" fill="#f6dfa3"></circle>
<animate attributeName="opacity" dur="0.7142857142857142s" repeatCount="indefinite" keyTimes="0;0.5;1" calcMode="spline" keySplines="0.2 0 0.8 1;0.2 0 0.8 1" begin="-0.22154316271963329s" values="1;0.5;1"></animate>
</g><g transform="translate(784.0426371887763 520.9432792188652) rotate(83.58669407867896) scale(0.2538706230475148)">
<circle cx="0" cy="0" r="5" fill="#fff6a7"></circle>
<animate attributeName="opacity" dur="0.7142857142857142s" repeatCount="indefinite" keyTimes="0;0.5;1" calcMode="spline" keySplines="0.2 0 0.8 1;0.2 0 0.8 1" begin="-0.22918258212375858s" values="1;0.5;1"></animate>
</g><g transform="translate(661.694927007717 732.3589057101947) rotate(131.31302348955253) scale(0.26238173866120507)">
<circle cx="0" cy="0" r="5" fill="#f6dfa3"></circle>
<animate attributeName="opacity" dur="0.7142857142857142s" repeatCount="indefinite" keyTimes="0;0.5;1" calcMode="spline" keySplines="0.2 0 0.8 1;0.2 0 0.8 1" begin="-0.23682200152788382s" values="1;0.5;1"></animate>
</g><g transform="translate(15.195208689123683 404.7958358388446) rotate(186.11376314367195) scale(0.2682009785955626)">
<circle cx="0" cy="0" r="5" fill="#fff6a7"></circle>
<animate attributeName="opacity" dur="0.7142857142857142s" repeatCount="indefinite" keyTimes="0;0.5;1" calcMode="spline" keySplines="0.2 0 0.8 1;0.2 0 0.8 1" begin="-0.24446142093200912s" values="1;0.5;1"></animate>
</g><g transform="translate(848.4046692992947 395.2112853101644) rotate(91.66541621001457) scale(0.3576922197051566)">
<circle cx="0" cy="0" r="5" fill="#f6dfa3"></circle>
<animate attributeName="opacity" dur="0.7142857142857142s" repeatCount="indefinite" keyTimes="0;0.5;1" calcMode="spline" keySplines="0.2 0 0.8 1;0.2 0 0.8 1" begin="-0.25210084033613445s" values="1;0.5;1"></animate>
</g><g transform="translate(1108.1603812966714 767.4351140147872) rotate(359.9292747001242) scale(0.35021519392905764)">
<circle cx="0" cy="0" r="5" fill="#f6dfa3"></circle>
<animate attributeName="opacity" dur="0.7142857142857142s" repeatCount="indefinite" keyTimes="0;0.5;1" calcMode="spline" keySplines="0.2 0 0.8 1;0.2 0 0.8 1" begin="-0.2597402597402597s" values="1;0.5;1"></animate>
</g><g transform="translate(864.406561501206 697.1320959384589) rotate(328.87473641950186) scale(0.3653992095668471)">
<circle cx="0" cy="0" r="5" fill="#fff6a7"></circle>
<animate attributeName="opacity" dur="0.7142857142857142s" repeatCount="indefinite" keyTimes="0;0.5;1" calcMode="spline" keySplines="0.2 0 0.8 1;0.2 0 0.8 1" begin="-0.267379679144385s" values="1;0.5;1"></animate>
</g><g transform="translate(987.3388662846894 581.9933488041951) rotate(230.681241405864) scale(0.36327516066584864)">
<circle cx="0" cy="0" r="5" fill="#f6dfa3"></circle>
<animate attributeName="opacity" dur="0.7142857142857142s" repeatCount="indefinite" keyTimes="0;0.5;1" calcMode="spline" keySplines="0.2 0 0.8 1;0.2 0 0.8 1" begin="-0.2750190985485103s" values="1;0.5;1"></animate>
</g><g transform="translate(35.40184627775227 375.7131533093347) rotate(271.1555258548414) scale(0.30816110839019917)">
<circle cx="0" cy="0" r="5" fill="#fff6a7"></circle>
<animate attributeName="opacity" dur="0.7142857142857142s" repeatCount="indefinite" keyTimes="0;0.5;1" calcMode="spline" keySplines="0.2 0 0.8 1;0.2 0 0.8 1" begin="-0.2826585179526355s" values="1;0.5;1"></animate>
</g><g transform="translate(18.967086372900358 76.05270055189837) rotate(45.00850746839312) scale(0.2708785912912775)">
<circle cx="0" cy="0" r="5" fill="#f6dfa3"></circle>
<animate attributeName="opacity" dur="0.7142857142857142s" repeatCount="indefinite" keyTimes="0;0.5;1" calcMode="spline" keySplines="0.2 0 0.8 1;0.2 0 0.8 1" begin="-0.29029793735676085s" values="1;0.5;1"></animate>
</g><g transform="translate(95.02831191631095 160.42515748809478) rotate(183.7757192087015) scale(0.30797137851893336)">
<circle cx="0" cy="0" r="5" fill="#fff6a7"></circle>
<animate attributeName="opacity" dur="0.7142857142857142s" repeatCount="indefinite" keyTimes="0;0.5;1" calcMode="spline" keySplines="0.2 0 0.8 1;0.2 0 0.8 1" begin="-0.2979373567608861s" values="1;0.5;1"></animate>
</g><g transform="translate(541.429460498886 575.1427132258042) rotate(60.74293330438083) scale(0.3523066055154236)">
<circle cx="0" cy="0" r="5" fill="#fff6a7"></circle>
<animate attributeName="opacity" dur="0.7142857142857142s" repeatCount="indefinite" keyTimes="0;0.5;1" calcMode="spline" keySplines="0.2 0 0.8 1;0.2 0 0.8 1" begin="-0.30557677616501144s" values="1;0.5;1"></animate>
</g><g transform="translate(557.684674037118 63.871561598828684) rotate(356.1557974718042) scale(0.33880867508278795)">
<circle cx="0" cy="0" r="5" fill="#f6dfa3"></circle>
<animate attributeName="opacity" dur="0.7142857142857142s" repeatCount="indefinite" keyTimes="0;0.5;1" calcMode="spline" keySplines="0.2 0 0.8 1;0.2 0 0.8 1" begin="-0.3132161955691367s" values="1;0.5;1"></animate>
</g><g transform="translate(33.174308593491816 42.68069814369483) rotate(23.694166624604584) scale(0.30071255754570003)">
<circle cx="0" cy="0" r="5" fill="#f6dfa3"></circle>
<animate attributeName="opacity" dur="0.7142857142857142s" repeatCount="indefinite" keyTimes="0;0.5;1" calcMode="spline" keySplines="0.2 0 0.8 1;0.2 0 0.8 1" begin="-0.320855614973262s" values="1;0.5;1"></animate>
</g><g transform="translate(22.703245274704038 194.34669132182165) rotate(358.6228779000659) scale(0.26290305454253965)">
<circle cx="0" cy="0" r="5" fill="#fff6a7"></circle>
<animate attributeName="opacity" dur="0.7142857142857142s" repeatCount="indefinite" keyTimes="0;0.5;1" calcMode="spline" keySplines="0.2 0 0.8 1;0.2 0 0.8 1" begin="-0.3284950343773873s" values="1;0.5;1"></animate>
</g><g transform="translate(143.74810667309504 37.62542846449622) rotate(167.94599632371) scale(0.35685353680423354)">
<circle cx="0" cy="0" r="5" fill="#fff6a7"></circle>
<animate attributeName="opacity" dur="0.7142857142857142s" repeatCount="indefinite" keyTimes="0;0.5;1" calcMode="spline" keySplines="0.2 0 0.8 1;0.2 0 0.8 1" begin="-0.3361344537815126s" values="1;0.5;1"></animate>
</g><g transform="translate(940.3678888750184 450.8333090016054) rotate(226.22834292589494) scale(0.3037822452921009)">
<circle cx="0" cy="0" r="5" fill="#f6dfa3"></circle>
<animate attributeName="opacity" dur="0.7142857142857142s" repeatCount="indefinite" keyTimes="0;0.5;1" calcMode="spline" keySplines="0.2 0 0.8 1;0.2 0 0.8 1" begin="-0.34377387318563785s" values="1;0.5;1"></animate>
</g><g transform="translate(840.2147859807549 0.48236035975450786) rotate(199.26788224832336) scale(0.35658559569994824)">
<circle cx="0" cy="0" r="5" fill="#fff6a7"></circle>
<animate attributeName="opacity" dur="0.7142857142857142s" repeatCount="indefinite" keyTimes="0;0.5;1" calcMode="spline" keySplines="0.2 0 0.8 1;0.2 0 0.8 1" begin="-0.35141329258976317s" values="1;0.5;1"></animate>
</g><g transform="translate(533.1840350998308 173.39612084437942) rotate(357.4387154783987) scale(0.25197715385924435)">
<circle cx="0" cy="0" r="5" fill="#fff6a7"></circle>
<animate attributeName="opacity" dur="0.7142857142857142s" repeatCount="indefinite" keyTimes="0;0.5;1" calcMode="spline" keySplines="0.2 0 0.8 1;0.2 0 0.8 1" begin="-0.35905271199388844s" values="1;0.5;1"></animate>
</g><g transform="translate(497.05792190787395 456.1156085744518) rotate(134.30699114472495) scale(0.254728285219471)">
<circle cx="0" cy="0" r="5" fill="#f6dfa3"></circle>
<animate attributeName="opacity" dur="0.7142857142857142s" repeatCount="indefinite" keyTimes="0;0.5;1" calcMode="spline" keySplines="0.2 0 0.8 1;0.2 0 0.8 1" begin="-0.36669213139801365s" values="1;0.5;1"></animate>
</g><g transform="translate(132.48536023813458 93.57888326241063) rotate(219.03080196783395) scale(0.32671267303707435)">
<circle cx="0" cy="0" r="5" fill="#fff6a7"></circle>
<animate attributeName="opacity" dur="0.7142857142857142s" repeatCount="indefinite" keyTimes="0;0.5;1" calcMode="spline" keySplines="0.2 0 0.8 1;0.2 0 0.8 1" begin="-0.374331550802139s" values="1;0.5;1"></animate>
</g><g transform="translate(158.0667022543402 362.44525571990636) rotate(74.7141307736074) scale(0.27484422712412304)">
<circle cx="0" cy="0" r="5" fill="#f6dfa3"></circle>
<animate attributeName="opacity" dur="0.7142857142857142s" repeatCount="indefinite" keyTimes="0;0.5;1" calcMode="spline" keySplines="0.2 0 0.8 1;0.2 0 0.8 1" begin="-0.38197097020626425s" values="1;0.5;1"></animate>
</g><g transform="translate(297.2054533637386 534.4452533481652) rotate(14.834502902554219) scale(0.3228653909283328)">
<circle cx="0" cy="0" r="5" fill="#fff6a7"></circle>
<animate attributeName="opacity" dur="0.7142857142857142s" repeatCount="indefinite" keyTimes="0;0.5;1" calcMode="spline" keySplines="0.2 0 0.8 1;0.2 0 0.8 1" begin="-0.3896103896103896s" values="1;0.5;1"></animate>
</g><g transform="translate(741.7164608192206 662.5661908181687) rotate(97.10241200517589) scale(0.3427266380451278)">
<circle cx="0" cy="0" r="5" fill="#fff6a7"></circle>
<animate attributeName="opacity" dur="0.7142857142857142s" repeatCount="indefinite" keyTimes="0;0.5;1" calcMode="spline" keySplines="0.2 0 0.8 1;0.2 0 0.8 1" begin="-0.39724980901451484s" values="1;0.5;1"></animate>
</g><g transform="translate(180.41557877693276 134.42683056406253) rotate(215.46191931853156) scale(0.349539147382989)">
<circle cx="0" cy="0" r="5" fill="#fff6a7"></circle>
<animate attributeName="opacity" dur="0.7142857142857142s" repeatCount="indefinite" keyTimes="0;0.5;1" calcMode="spline" keySplines="0.2 0 0.8 1;0.2 0 0.8 1" begin="-0.40488922841864017s" values="1;0.5;1"></animate>
</g><g transform="translate(358.4369982817649 655.2150122882128) rotate(197.71017621871854) scale(0.3358018592369216)">
<circle cx="0" cy="0" r="5" fill="#f6dfa3"></circle>
<animate attributeName="opacity" dur="0.7142857142857142s" repeatCount="indefinite" keyTimes="0;0.5;1" calcMode="spline" keySplines="0.2 0 0.8 1;0.2 0 0.8 1" begin="-0.41252864782276544s" values="1;0.5;1"></animate>
</g><g transform="translate(505.60393136453627 161.67317543008824) rotate(236.81952673899391) scale(0.2530078302384504)">
<circle cx="0" cy="0" r="5" fill="#f6dfa3"></circle>
<animate attributeName="opacity" dur="0.7142857142857142s" repeatCount="indefinite" keyTimes="0;0.5;1" calcMode="spline" keySplines="0.2 0 0.8 1;0.2 0 0.8 1" begin="-0.42016806722689065s" values="1;0.5;1"></animate>
</g><g transform="translate(556.7453447268445 163.71451131192077) rotate(331.4203393057932) scale(0.36515070953230183)">
<circle cx="0" cy="0" r="5" fill="#fff6a7"></circle>
<animate attributeName="opacity" dur="0.7142857142857142s" repeatCount="indefinite" keyTimes="0;0.5;1" calcMode="spline" keySplines="0.2 0 0.8 1;0.2 0 0.8 1" begin="-0.427807486631016s" values="1;0.5;1"></animate>
</g><g transform="translate(786.6871411177299 145.05509473630698) rotate(272.71509340868465) scale(0.2838339952369749)">
<circle cx="0" cy="0" r="5" fill="#f6dfa3"></circle>
<animate attributeName="opacity" dur="0.7142857142857142s" repeatCount="indefinite" keyTimes="0;0.5;1" calcMode="spline" keySplines="0.2 0 0.8 1;0.2 0 0.8 1" begin="-0.43544690603514125s" values="1;0.5;1"></animate>
</g><g transform="translate(398.83660830173136 502.2949412456794) rotate(291.15092184599285) scale(0.3264473255785413)">
<circle cx="0" cy="0" r="5" fill="#fff6a7"></circle>
<animate attributeName="opacity" dur="0.7142857142857142s" repeatCount="indefinite" keyTimes="0;0.5;1" calcMode="spline" keySplines="0.2 0 0.8 1;0.2 0 0.8 1" begin="-0.44308632543926657s" values="1;0.5;1"></animate>
</g><g transform="translate(955.3758069746467 156.42040202885727) rotate(81.77531033119521) scale(0.35908582244392734)">
<circle cx="0" cy="0" r="5" fill="#fff6a7"></circle>
<animate attributeName="opacity" dur="0.7142857142857142s" repeatCount="indefinite" keyTimes="0;0.5;1" calcMode="spline" keySplines="0.2 0 0.8 1;0.2 0 0.8 1" begin="-0.45072574484339184s" values="1;0.5;1"></animate>
</g><g transform="translate(187.39258705631048 395.9827292726158) rotate(271.8867047833954) scale(0.2816253728424138)">
<circle cx="0" cy="0" r="5" fill="#f6dfa3"></circle>
<animate attributeName="opacity" dur="0.7142857142857142s" repeatCount="indefinite" keyTimes="0;0.5;1" calcMode="spline" keySplines="0.2 0 0.8 1;0.2 0 0.8 1" begin="-0.45836516424751717s" values="1;0.5;1"></animate>
</g><g transform="translate(54.92612020870352 141.04513554052372) rotate(231.75343858071778) scale(0.28757326014720513)">
<circle cx="0" cy="0" r="5" fill="#fff6a7"></circle>
<animate attributeName="opacity" dur="0.7142857142857142s" repeatCount="indefinite" keyTimes="0;0.5;1" calcMode="spline" keySplines="0.2 0 0.8 1;0.2 0 0.8 1" begin="-0.4660045836516424s" values="1;0.5;1"></animate>
</g><g transform="translate(472.60341566785354 274.48371253925416) rotate(217.2839784658635) scale(0.3171919061466947)">
<circle cx="0" cy="0" r="5" fill="#fff6a7"></circle>
<animate attributeName="opacity" dur="0.7142857142857142s" repeatCount="indefinite" keyTimes="0;0.5;1" calcMode="spline" keySplines="0.2 0 0.8 1;0.2 0 0.8 1" begin="-0.47364400305576765s" values="1;0.5;1"></animate>
</g><g transform="translate(1007.622431062699 733.5830232733879) rotate(341.1080600221357) scale(0.3538313649329297)">
<circle cx="0" cy="0" r="5" fill="#f6dfa3"></circle>
<animate attributeName="opacity" dur="0.7142857142857142s" repeatCount="indefinite" keyTimes="0;0.5;1" calcMode="spline" keySplines="0.2 0 0.8 1;0.2 0 0.8 1" begin="-0.481283422459893s" values="1;0.5;1"></animate>
</g><g transform="translate(580.3488237821737 282.9251097735074) rotate(55.432075539321595) scale(0.3331309783753207)">
<circle cx="0" cy="0" r="5" fill="#f6dfa3"></circle>
<animate attributeName="opacity" dur="0.7142857142857142s" repeatCount="indefinite" keyTimes="0;0.5;1" calcMode="spline" keySplines="0.2 0 0.8 1;0.2 0 0.8 1" begin="-0.48892284186401824s" values="1;0.5;1"></animate>
</g><g transform="translate(276.9515838551256 651.2954787437583) rotate(32.174961372796076) scale(0.3515493010775561)">
<circle cx="0" cy="0" r="5" fill="#fff6a7"></circle>
<animate attributeName="opacity" dur="0.7142857142857142s" repeatCount="indefinite" keyTimes="0;0.5;1" calcMode="spline" keySplines="0.2 0 0.8 1;0.2 0 0.8 1" begin="-0.49656226126814357s" values="1;0.5;1"></animate>
</g><g transform="translate(272.5825174555542 31.411178833784323) rotate(303.39637223444953) scale(0.3166416415365916)">
<circle cx="0" cy="0" r="5" fill="#f6dfa3"></circle>
<animate attributeName="opacity" dur="0.7142857142857142s" repeatCount="indefinite" keyTimes="0;0.5;1" calcMode="spline" keySplines="0.2 0 0.8 1;0.2 0 0.8 1" begin="-0.5042016806722689s" values="1;0.5;1"></animate>
</g><g transform="translate(657.5967824753336 506.48232760432137) rotate(131.10287382492783) scale(0.27104835576913644)">
<circle cx="0" cy="0" r="5" fill="#f6dfa3"></circle>
<animate attributeName="opacity" dur="0.7142857142857142s" repeatCount="indefinite" keyTimes="0;0.5;1" calcMode="spline" keySplines="0.2 0 0.8 1;0.2 0 0.8 1" begin="-0.5118411000763942s" values="1;0.5;1"></animate>
</g><g transform="translate(127.97312378003323 394.89544387271366) rotate(120.07429191324532) scale(0.2713559700966077)">
<circle cx="0" cy="0" r="5" fill="#fff6a7"></circle>
<animate attributeName="opacity" dur="0.7142857142857142s" repeatCount="indefinite" keyTimes="0;0.5;1" calcMode="spline" keySplines="0.2 0 0.8 1;0.2 0 0.8 1" begin="-0.5194805194805194s" values="1;0.5;1"></animate>
</g><g transform="translate(238.95469753814825 442.1476445436154) rotate(9.071129445822015) scale(0.31177217013488917)">
<circle cx="0" cy="0" r="5" fill="#fff6a7"></circle>
<animate attributeName="opacity" dur="0.7142857142857142s" repeatCount="indefinite" keyTimes="0;0.5;1" calcMode="spline" keySplines="0.2 0 0.8 1;0.2 0 0.8 1" begin="-0.5271199388846447s" values="1;0.5;1"></animate>
</g><g transform="translate(573.8673211603864 254.65064197242276) rotate(81.25887110664438) scale(0.29667662097201014)">
<circle cx="0" cy="0" r="5" fill="#f6dfa3"></circle>
<animate attributeName="opacity" dur="0.7142857142857142s" repeatCount="indefinite" keyTimes="0;0.5;1" calcMode="spline" keySplines="0.2 0 0.8 1;0.2 0 0.8 1" begin="-0.53475935828877s" values="1;0.5;1"></animate>
</g><g transform="translate(689.3233318642591 85.42846011294883) rotate(107.36581416375019) scale(0.3209083397633007)">
<circle cx="0" cy="0" r="5" fill="#fff6a7"></circle>
<animate attributeName="opacity" dur="0.7142857142857142s" repeatCount="indefinite" keyTimes="0;0.5;1" calcMode="spline" keySplines="0.2 0 0.8 1;0.2 0 0.8 1" begin="-0.5423987776928952s" values="1;0.5;1"></animate>
</g><g transform="translate(920.9208376452348 166.71387705123226) rotate(180.92574409071767) scale(0.33601832164855433)">
<circle cx="0" cy="0" r="5" fill="#fff6a7"></circle>
<animate attributeName="opacity" dur="0.7142857142857142s" repeatCount="indefinite" keyTimes="0;0.5;1" calcMode="spline" keySplines="0.2 0 0.8 1;0.2 0 0.8 1" begin="-0.5500381970970206s" values="1;0.5;1"></animate>
</g><g transform="translate(656.0134504569507 165.71984610446367) rotate(178.8574589318516) scale(0.3234623151256129)">
<circle cx="0" cy="0" r="5" fill="#fff6a7"></circle>
<animate attributeName="opacity" dur="0.7142857142857142s" repeatCount="indefinite" keyTimes="0;0.5;1" calcMode="spline" keySplines="0.2 0 0.8 1;0.2 0 0.8 1" begin="-0.5576776165011459s" values="1;0.5;1"></animate>
</g><g transform="translate(198.65364405149938 454.21303970889994) rotate(155.89440100913768) scale(0.2751465035164482)">
<circle cx="0" cy="0" r="5" fill="#f6dfa3"></circle>
<animate attributeName="opacity" dur="0.7142857142857142s" repeatCount="indefinite" keyTimes="0;0.5;1" calcMode="spline" keySplines="0.2 0 0.8 1;0.2 0 0.8 1" begin="-0.565317035905271s" values="1;0.5;1"></animate>
</g><g transform="translate(403.65893063932674 592.302880619087) rotate(301.32692613977747) scale(0.36652070476346466)">
<circle cx="0" cy="0" r="5" fill="#f6dfa3"></circle>
<animate attributeName="opacity" dur="0.7142857142857142s" repeatCount="indefinite" keyTimes="0;0.5;1" calcMode="spline" keySplines="0.2 0 0.8 1;0.2 0 0.8 1" begin="-0.5729564553093964s" values="1;0.5;1"></animate>
</g><g transform="translate(678.4244868227973 525.4815313148655) rotate(320.6261078422275) scale(0.25629829229732254)">
<circle cx="0" cy="0" r="5" fill="#f6dfa3"></circle>
<animate attributeName="opacity" dur="0.7142857142857142s" repeatCount="indefinite" keyTimes="0;0.5;1" calcMode="spline" keySplines="0.2 0 0.8 1;0.2 0 0.8 1" begin="-0.5805958747135217s" values="1;0.5;1"></animate>
</g><g transform="translate(504.36475750020907 574.4556191289944) rotate(19.985107582826636) scale(0.31764681389291)">
<circle cx="0" cy="0" r="5" fill="#fff6a7"></circle>
<animate attributeName="opacity" dur="0.7142857142857142s" repeatCount="indefinite" keyTimes="0;0.5;1" calcMode="spline" keySplines="0.2 0 0.8 1;0.2 0 0.8 1" begin="-0.588235294117647s" values="1;0.5;1"></animate>
</g><g transform="translate(716.503653930581 593.2379558162785) rotate(259.70953872552104) scale(0.34799335725353125)">
<circle cx="0" cy="0" r="5" fill="#fff6a7"></circle>
<animate attributeName="opacity" dur="0.7142857142857142s" repeatCount="indefinite" keyTimes="0;0.5;1" calcMode="spline" keySplines="0.2 0 0.8 1;0.2 0 0.8 1" begin="-0.5958747135217722s" values="1;0.5;1"></animate>
</g><g transform="translate(973.9378662732444 607.3196960022489) rotate(22.11990336249591) scale(0.2651831120119082)">
<circle cx="0" cy="0" r="5" fill="#fff6a7"></circle>
<animate attributeName="opacity" dur="0.7142857142857142s" repeatCount="indefinite" keyTimes="0;0.5;1" calcMode="spline" keySplines="0.2 0 0.8 1;0.2 0 0.8 1" begin="-0.6035141329258976s" values="1;0.5;1"></animate>
</g><g transform="translate(562.6960943451267 457.41939880659385) rotate(88.56941046590501) scale(0.33988160091558944)">
<circle cx="0" cy="0" r="5" fill="#f6dfa3"></circle>
<animate attributeName="opacity" dur="0.7142857142857142s" repeatCount="indefinite" keyTimes="0;0.5;1" calcMode="spline" keySplines="0.2 0 0.8 1;0.2 0 0.8 1" begin="-0.6111535523300229s" values="1;0.5;1"></animate>
</g><g transform="translate(109.78909767160367 273.81377352231317) rotate(359.8177271570822) scale(0.3554896183250222)">
<circle cx="0" cy="0" r="5" fill="#f6dfa3"></circle>
<animate attributeName="opacity" dur="0.7142857142857142s" repeatCount="indefinite" keyTimes="0;0.5;1" calcMode="spline" keySplines="0.2 0 0.8 1;0.2 0 0.8 1" begin="-0.618792971734148s" values="1;0.5;1"></animate>
</g><g transform="translate(580.3961980053933 265.615141112968) rotate(218.83573653919362) scale(0.32544564812006843)">
<circle cx="0" cy="0" r="5" fill="#fff6a7"></circle>
<animate attributeName="opacity" dur="0.7142857142857142s" repeatCount="indefinite" keyTimes="0;0.5;1" calcMode="spline" keySplines="0.2 0 0.8 1;0.2 0 0.8 1" begin="-0.6264323911382734s" values="1;0.5;1"></animate>
</g><g transform="translate(2.41336153710044 697.2848012167805) rotate(173.2756638468111) scale(0.27221604538277533)">
<circle cx="0" cy="0" r="5" fill="#fff6a7"></circle>
<animate attributeName="opacity" dur="0.7142857142857142s" repeatCount="indefinite" keyTimes="0;0.5;1" calcMode="spline" keySplines="0.2 0 0.8 1;0.2 0 0.8 1" begin="-0.6340718105423987s" values="1;0.5;1"></animate>
</g><g transform="translate(581.9328740219228 180.7878476448842) rotate(101.57220579314584) scale(0.3311487031155408)">
<circle cx="0" cy="0" r="5" fill="#f6dfa3"></circle>
<animate attributeName="opacity" dur="0.7142857142857142s" repeatCount="indefinite" keyTimes="0;0.5;1" calcMode="spline" keySplines="0.2 0 0.8 1;0.2 0 0.8 1" begin="-0.641711229946524s" values="1;0.5;1"></animate>
</g><g transform="translate(842.9028013756753 329.6752552145598) rotate(218.28358920357604) scale(0.2601759886953595)">
<circle cx="0" cy="0" r="5" fill="#f6dfa3"></circle>
<animate attributeName="opacity" dur="0.7142857142857142s" repeatCount="indefinite" keyTimes="0;0.5;1" calcMode="spline" keySplines="0.2 0 0.8 1;0.2 0 0.8 1" begin="-0.6493506493506492s" values="1;0.5;1"></animate>
</g><g transform="translate(568.6394789118417 649.8043788587019) rotate(306.3939071753695) scale(0.27893507653845717)">
<circle cx="0" cy="0" r="5" fill="#fff6a7"></circle>
<animate attributeName="opacity" dur="0.7142857142857142s" repeatCount="indefinite" keyTimes="0;0.5;1" calcMode="spline" keySplines="0.2 0 0.8 1;0.2 0 0.8 1" begin="-0.6569900687547746s" values="1;0.5;1"></animate>
</g><g transform="translate(962.5839863448887 214.82746822231243) rotate(317.4442213082033) scale(0.35532513145724903)">
<circle cx="0" cy="0" r="5" fill="#f6dfa3"></circle>
<animate attributeName="opacity" dur="0.7142857142857142s" repeatCount="indefinite" keyTimes="0;0.5;1" calcMode="spline" keySplines="0.2 0 0.8 1;0.2 0 0.8 1" begin="-0.6646294881588998s" values="1;0.5;1"></animate>
</g><g transform="translate(878.4955901861049 453.9801504955605) rotate(317.20150096222403) scale(0.3153764458462711)">
<circle cx="0" cy="0" r="5" fill="#fff6a7"></circle>
<animate attributeName="opacity" dur="0.7142857142857142s" repeatCount="indefinite" keyTimes="0;0.5;1" calcMode="spline" keySplines="0.2 0 0.8 1;0.2 0 0.8 1" begin="-0.6722689075630252s" values="1;0.5;1"></animate>
</g><g transform="translate(370.37722413050693 167.54553487255143) rotate(169.2550324407677) scale(0.2909935779913141)">
<circle cx="0" cy="0" r="5" fill="#f6dfa3"></circle>
<animate attributeName="opacity" dur="0.7142857142857142s" repeatCount="indefinite" keyTimes="0;0.5;1" calcMode="spline" keySplines="0.2 0 0.8 1;0.2 0 0.8 1" begin="-0.6799083269671504s" values="1;0.5;1"></animate>
</g><g transform="translate(395.8937878451198 43.453215264474125) rotate(117.07138658881381) scale(0.3118587649514794)">
<circle cx="0" cy="0" r="5" fill="#f6dfa3"></circle>
<animate attributeName="opacity" dur="0.7142857142857142s" repeatCount="indefinite" keyTimes="0;0.5;1" calcMode="spline" keySplines="0.2 0 0.8 1;0.2 0 0.8 1" begin="-0.6875477463712757s" values="1;0.5;1"></animate>
</g><g transform="translate(878.0373337929401 21.648019400688668) rotate(162.2791257904581) scale(0.3158902023755504)">
<circle cx="0" cy="0" r="5" fill="#f6dfa3"></circle>
<animate attributeName="opacity" dur="0.7142857142857142s" repeatCount="indefinite" keyTimes="0;0.5;1" calcMode="spline" keySplines="0.2 0 0.8 1;0.2 0 0.8 1" begin="-0.695187165775401s" values="1;0.5;1"></animate>
</g><g transform="translate(971.7389861392161 697.1233777817486) rotate(325.35508036886097) scale(0.2611800876454626)">
<circle cx="0" cy="0" r="5" fill="#f6dfa3"></circle>
<animate attributeName="opacity" dur="0.7142857142857142s" repeatCount="indefinite" keyTimes="0;0.5;1" calcMode="spline" keySplines="0.2 0 0.8 1;0.2 0 0.8 1" begin="-0.7028265851795263s" values="1;0.5;1"></animate>
</g><g transform="translate(191.56963337970578 745.6908372363913) rotate(224.8578458555174) scale(0.3383661879426577)">
<circle cx="0" cy="0" r="5" fill="#f6dfa3"></circle>
<animate attributeName="opacity" dur="0.7142857142857142s" repeatCount="indefinite" keyTimes="0;0.5;1" calcMode="spline" keySplines="0.2 0 0.8 1;0.2 0 0.8 1" begin="-0.7104660045836515s" values="1;0.5;1"></animate>
</g><g transform="translate(387.9057261712825 368.94235914647953) rotate(354.843458332282) scale(0.3357322051965285)">
<circle cx="0" cy="0" r="5" fill="#fff6a7"></circle>
<animate attributeName="opacity" dur="0.7142857142857142s" repeatCount="indefinite" keyTimes="0;0.5;1" calcMode="spline" keySplines="0.2 0 0.8 1;0.2 0 0.8 1" begin="-0.7181054239877769s" values="1;0.5;1"></animate>
</g><g transform="translate(246.390956750009 566.2065203207533) rotate(50.087213008959345) scale(0.34270593298370744)">
<circle cx="0" cy="0" r="5" fill="#fff6a7"></circle>
<animate attributeName="opacity" dur="0.7142857142857142s" repeatCount="indefinite" keyTimes="0;0.5;1" calcMode="spline" keySplines="0.2 0 0.8 1;0.2 0 0.8 1" begin="-0.7257448433919022s" values="1;0.5;1"></animate>
</g><g transform="translate(833.0842806719292 454.2518845090937) rotate(103.83090260148504) scale(0.25081864096347295)">
<circle cx="0" cy="0" r="5" fill="#fff6a7"></circle>
<animate attributeName="opacity" dur="0.7142857142857142s" repeatCount="indefinite" keyTimes="0;0.5;1" calcMode="spline" keySplines="0.2 0 0.8 1;0.2 0 0.8 1" begin="-0.7333842627960273s" values="1;0.5;1"></animate>
</g><g transform="translate(584.1206762392811 547.3355879515677) rotate(85.58607334660809) scale(0.34524817576461614)">
<circle cx="0" cy="0" r="5" fill="#fff6a7"></circle>
<animate attributeName="opacity" dur="0.7142857142857142s" repeatCount="indefinite" keyTimes="0;0.5;1" calcMode="spline" keySplines="0.2 0 0.8 1;0.2 0 0.8 1" begin="-0.7410236822001527s" values="1;0.5;1"></animate>
</g><g transform="translate(172.46877828974743 200.97781879453814) rotate(355.475847174966) scale(0.2639757422117743)">
<circle cx="0" cy="0" r="5" fill="#fff6a7"></circle>
<animate attributeName="opacity" dur="0.7142857142857142s" repeatCount="indefinite" keyTimes="0;0.5;1" calcMode="spline" keySplines="0.2 0 0.8 1;0.2 0 0.8 1" begin="-0.748663101604278s" values="1;0.5;1"></animate>
</g><g transform="translate(537.9614051122433 469.2100471978545) rotate(27.950890155062275) scale(0.2557190107249245)">
<circle cx="0" cy="0" r="5" fill="#f6dfa3"></circle>
<animate attributeName="opacity" dur="0.7142857142857142s" repeatCount="indefinite" keyTimes="0;0.5;1" calcMode="spline" keySplines="0.2 0 0.8 1;0.2 0 0.8 1" begin="-0.7563025210084033s" values="1;0.5;1"></animate>
</g><g transform="translate(526.4751883673104 310.9341154488039) rotate(255.98688061720128) scale(0.27517269704820096)">
<circle cx="0" cy="0" r="5" fill="#fff6a7"></circle>
<animate attributeName="opacity" dur="0.7142857142857142s" repeatCount="indefinite" keyTimes="0;0.5;1" calcMode="spline" keySplines="0.2 0 0.8 1;0.2 0 0.8 1" begin="-0.7639419404125285s" values="1;0.5;1"></animate>
</g><g transform="translate(940.0903548428563 671.2087353847696) rotate(284.8712718585503) scale(0.2651147422907609)">
<circle cx="0" cy="0" r="5" fill="#fff6a7"></circle>
<animate attributeName="opacity" dur="0.7142857142857142s" repeatCount="indefinite" keyTimes="0;0.5;1" calcMode="spline" keySplines="0.2 0 0.8 1;0.2 0 0.8 1" begin="-0.7715813598166539s" values="1;0.5;1"></animate>
</g><g transform="translate(703.6873437076788 458.67438086378644) rotate(47.5335137696655) scale(0.25189812685220875)">
<circle cx="0" cy="0" r="5" fill="#f6dfa3"></circle>
<animate attributeName="opacity" dur="0.7142857142857142s" repeatCount="indefinite" keyTimes="0;0.5;1" calcMode="spline" keySplines="0.2 0 0.8 1;0.2 0 0.8 1" begin="-0.7792207792207791s" values="1;0.5;1"></animate>
</g><g transform="translate(344.9936421462327 570.1052822828746) rotate(139.67938464893857) scale(0.26491329167319827)">
<circle cx="0" cy="0" r="5" fill="#fff6a7"></circle>
<animate attributeName="opacity" dur="0.7142857142857142s" repeatCount="indefinite" keyTimes="0;0.5;1" calcMode="spline" keySplines="0.2 0 0.8 1;0.2 0 0.8 1" begin="-0.7868601986249043s" values="1;0.5;1"></animate>
</g><g transform="translate(435.90048515785054 125.6790683631372) rotate(53.47103512792315) scale(0.2991326800881406)">
<circle cx="0" cy="0" r="5" fill="#f6dfa3"></circle>
<animate attributeName="opacity" dur="0.7142857142857142s" repeatCount="indefinite" keyTimes="0;0.5;1" calcMode="spline" keySplines="0.2 0 0.8 1;0.2 0 0.8 1" begin="-0.7944996180290297s" values="1;0.5;1"></animate>
</g><g transform="translate(1023.0198786532978 563.6894044147093) rotate(172.90816041369072) scale(0.2845316734856553)">
<circle cx="0" cy="0" r="5" fill="#fff6a7"></circle>
<animate attributeName="opacity" dur="0.7142857142857142s" repeatCount="indefinite" keyTimes="0;0.5;1" calcMode="spline" keySplines="0.2 0 0.8 1;0.2 0 0.8 1" begin="-0.802139037433155s" values="1;0.5;1"></animate>
</g><g transform="translate(407.633454898077 395.15120900869385) rotate(207.1625648641663) scale(0.3187925364454469)">
<circle cx="0" cy="0" r="5" fill="#fff6a7"></circle>
<animate attributeName="opacity" dur="0.7142857142857142s" repeatCount="indefinite" keyTimes="0;0.5;1" calcMode="spline" keySplines="0.2 0 0.8 1;0.2 0 0.8 1" begin="-0.8097784568372803s" values="1;0.5;1"></animate>
</g><g transform="translate(716.4591222741769 442.84438863457143) rotate(326.15712419063215) scale(0.2842609272886657)">
<circle cx="0" cy="0" r="5" fill="#fff6a7"></circle>
<animate attributeName="opacity" dur="0.7142857142857142s" repeatCount="indefinite" keyTimes="0;0.5;1" calcMode="spline" keySplines="0.2 0 0.8 1;0.2 0 0.8 1" begin="-0.8174178762414055s" values="1;0.5;1"></animate>
</g><g transform="translate(248.9516901057168 55.19755458243142) rotate(36.22261902471777) scale(0.3553183562745549)">
<circle cx="0" cy="0" r="5" fill="#f6dfa3"></circle>
<animate attributeName="opacity" dur="0.7142857142857142s" repeatCount="indefinite" keyTimes="0;0.5;1" calcMode="spline" keySplines="0.2 0 0.8 1;0.2 0 0.8 1" begin="-0.8250572956455309s" values="1;0.5;1"></animate>
</g><g transform="translate(400.46320558273425 279.62299795530936) rotate(237.56280972879333) scale(0.2691228113937054)">
<circle cx="0" cy="0" r="5" fill="#f6dfa3"></circle>
<animate attributeName="opacity" dur="0.7142857142857142s" repeatCount="indefinite" keyTimes="0;0.5;1" calcMode="spline" keySplines="0.2 0 0.8 1;0.2 0 0.8 1" begin="-0.8326967150496561s" values="1;0.5;1"></animate>
</g><g transform="translate(1052.4082935121878 400.10996953304334) rotate(325.835590319048) scale(0.2926151559835265)">
<circle cx="0" cy="0" r="5" fill="#f6dfa3"></circle>
<animate attributeName="opacity" dur="0.7142857142857142s" repeatCount="indefinite" keyTimes="0;0.5;1" calcMode="spline" keySplines="0.2 0 0.8 1;0.2 0 0.8 1" begin="-0.8403361344537813s" values="1;0.5;1"></animate>
</g><g transform="translate(108.06950961779103 405.07581764152553) rotate(215.29830098701905) scale(0.28936179950315216)">
<circle cx="0" cy="0" r="5" fill="#f6dfa3"></circle>
<animate attributeName="opacity" dur="0.7142857142857142s" repeatCount="indefinite" keyTimes="0;0.5;1" calcMode="spline" keySplines="0.2 0 0.8 1;0.2 0 0.8 1" begin="-0.8479755538579067s" values="1;0.5;1"></animate>
</g><g transform="translate(590.6032189104928 399.72544669835173) rotate(4.910030678014081) scale(0.2867542987255872)">
<circle cx="0" cy="0" r="5" fill="#fff6a7"></circle>
<animate attributeName="opacity" dur="0.7142857142857142s" repeatCount="indefinite" keyTimes="0;0.5;1" calcMode="spline" keySplines="0.2 0 0.8 1;0.2 0 0.8 1" begin="-0.855614973262032s" values="1;0.5;1"></animate>
</g><g transform="translate(459.0037778846966 533.3549046628204) rotate(169.2624791707394) scale(0.3514261806660468)">
<circle cx="0" cy="0" r="5" fill="#f6dfa3"></circle>
<animate attributeName="opacity" dur="0.7142857142857142s" repeatCount="indefinite" keyTimes="0;0.5;1" calcMode="spline" keySplines="0.2 0 0.8 1;0.2 0 0.8 1" begin="-0.8632543926661573s" values="1;0.5;1"></animate>
</g></g>
</svg>